inDegrees=yes
name=ik_lifting_orientations
DataType=double
version=3
OpenSimVersion=4.5-2024-01-10-34fd6af
endheader
time	pelvis_tilt	pelvis_list	pelvis_rotation	pelvis_tx	pelvis_ty	pelvis_tz	hip_flexion_r	hip_adduction_r	hip_rotation_r	knee_angle_r	knee_angle_r_beta	ankle_angle_r	subtalar_angle_r	mtp_angle_r	hip_flexion_l	hip_adduction_l	hip_rotation_l	knee_angle_l	knee_angle_l_beta	ankle_angle_l	subtalar_angle_l	mtp_angle_l	lumbar_extension	lumbar_bending	lumbar_rotation	arm_flex_r	arm_add_r	arm_rot_r	elbow_flex_r	pro_sup_r	wrist_flex_r	wrist_dev_r	arm_flex_l	arm_add_l	arm_rot_l	elbow_flex_l	pro_sup_l	wrist_flex_l	wrist_dev_l
1.06	-6.940620747438841	-17.98815743665687	-103.7181345241915	0	0.9399999998679526	0	44.99253210796864	-10.83564606409424	0	59.99686694876249	1.047142869136869	-5.347393447429337	0	0	44.99253210796864	-10.83564606409424	0	59.99686694876249	1.047142869136869	-5.347393447429337	0	0	-76.54958686144545	2.709388065610991	7.124072194586855	83.63501181972742	-29.7732870515991	48.39220788603572	97.41654262780325	2.100305975291427	0	0	0	-10.95557786861003	0	87.94126624446808	2.100305975291427	0	0
1.07	-7.022447288252191	-18.09987113194178	-103.3546200878844	0	0.9399999998679526	0	44.99259031257606	-10.81901443014033	0	59.9968914684478	1.04714329708611	-5.33899004859184	0	0	44.99259031257606	-10.81901443014033	0	59.9968914684478	1.04714329708611	-5.33899004859184	0	0	-76.586082389228	3.067214881215617	7.385637610908026	83.86320347076676	-30.57670241913907	47.38516192764867	111.8393297418712	2.087933704146793	0	0	0	-10.97431147995756	0	87.95339246981224	2.087933704146793	0	0
1.08	-7.487454277502419	-18.88542546921927	-103.3305212156119	0	0.9399999998679526	0	44.99264126848063	-10.80461537630026	0	59.99691294408028	1.047143671906605	-5.331742527102771	0	0	44.99264126848063	-10.80461537630026	0	59.99691294408028	1.047143671906605	-5.331742527102771	0	0	-77.36596052364197	3.22787693289502	7.881219455521107	83.63600886446184	-30.7102466321504	46.70640850117633	123.4151179225691	2.077082472186446	0	0	0	-10.99076215927758	0	87.96402790663828	2.077082472186446	0	0
1.09	-7.938402932632236	-19.67705958392584	-103.3101422566729	0	0.9399999998679526	0	44.99267512807891	-10.79552064099337	0	59.99692754934223	1.047143926816515	-5.327224980013331	0	0	44.99267512807891	-10.79552064099337	0	59.99692754934223	1.047143926816515	-5.327224980013331	0	0	-78.49172060525964	3.42983559342288	8.43450845964597	84.25554302375076	-29.55759455721306	47.27081712781055	131.2914917366028	2.069792160198211	0	0	0	-11.0019045110819	0	87.97117324610149	2.069792160198211	0	0
1.1	-9.049248752017386	-21.82261402686101	-104.263519941211	0	0.9399999998679526	0	44.99270906503308	-10.78643602097654	0	59.99694216542473	1.047144181915278	-5.322718868188056	0	0	44.99270906503308	-10.78643602097654	0	59.99694216542473	1.047144181915278	-5.322718868188056	0	0	-81.28790886431302	2.922988233817984	9.112259589907396	84.87529121491859	-28.00161018809425	48.02373177895588	139.6777165590147	2.062482331043794	0	0	0	-11.01307911678954	0	87.97833771485965	2.062482331043794	0	0
1.11	-10.4245340809457	-25.0120616222177	-105.9410671250007	0	0.9399999998679526	0	44.99274176749674	-10.77779889191522	0	59.99695629077455	1.04714442844914	-5.318453150431369	0	0	44.99274176749674	-10.77779889191522	0	59.99695629077455	1.04714442844914	-5.318453150431369	0	0	-84.96615993320422	1.992703996076157	9.587849365977988	85.51685281188564	-25.37764271672953	49.63745602802902	148.0940593351258	2.055421444715116	0	0	0	-11.02389121688315	0	87.98525819270512	2.055421444715116	0	0
1.12	-11.67274355543903	-27.75149213676127	-107.5543910406011	0	0.9399999998679526	0	44.99276788141451	-10.77086384471109	0	59.99696751619383	1.047144624369667	-5.315023396774364	0	0	44.99276788141451	-10.77086384471109	0	59.99696751619383	1.047144624369667	-5.315023396774364	0	0	-88.13920600027639	1.104028372510557	9.919514297297352	86.4527820167292	-22.83490707445347	51.35254942280828	148.6329476859002	2.049790131295117	0	0	0	-11.03250617764612	0	87.99077752460748	2.049790131295117	0	0
1.13	-12.45486737470414	-28.93383880896549	-108.5845124235739	0	0.9399999998679526	0	44.99278740168033	-10.76557361336086	0	59.9969757954111	1.047144768869267	-5.312394462951695	0	0	44.99278740168033	-10.76557361336086	0	59.9969757954111	1.047144768869267	-5.312394462951695	0	0	-89.64354291541443	0.3559000126982811	10.22590289699574	87.24223262629026	-20.02593284839229	52.84780279095522	148.9025598035202	2.045600617278337	0	0	0	-11.03889253334049	0	87.99488372615562	2.045600617278337	0	0
1.14	-11.9955123985712	-29.87983247146739	-108.5323925628318	0	0.9399999998679526	0	44.99279033718815	-10.76448315288157	0	59.99697680499616	1.047144786489851	-5.311814115923762	0	0	44.99279033718815	-10.76448315288157	0	59.99697680499616	1.047144786489851	-5.311814115923762	0	0	-89.9284476949331	-0.009310789352356881	9.710516146692909	86.27687220196923	-17.07975763830202	53.99551435337634	152.472997900491	2.045021369388842	0	0	0	-11.03971821861669	0	87.99545145046797	2.045021369388842	0	0
1.15	-9.582125783969278	-30.95869522068914	-106.5891057108158	0	0.9399999998679526	0	44.99279342461458	-10.76333969046646	0	59.99697786869267	1.047144805054857	-5.311206043429615	0	0	44.99279342461458	-10.76333969046646	0	59.99697786869267	1.047144805054857	-5.311206043429615	0	0	-89.96455700086396	0.6302057607143067	7.41190847167458	86.0423478000269	-14.80214861741255	54.86608348598359	153.3904096580621	2.044411679840281	0	0	0	-11.0405878393847	0	87.99604901088078	2.044411679840281	0	0
1.16	-7.021749232430377	-31.18839221442311	-104.357886811481	0	0.9399999998679526	0	44.99279666425145	-10.76214087592381	0	59.9969789847048	1.047144824532943	-5.310568803672938	0	0	44.99279666425145	-10.76214087592381	0	59.9969789847048	1.047144824532943	-5.310568803672938	0	0	-89.97219044039041	1.563166533083981	5.265824051424507	86.47042472499542	-12.83251782222932	55.84094790288192	154.607277682206	2.043771898522735	0	0	0	-11.04150039102334	0	87.99667606442388	2.043771898522735	0	0
1.17	-4.740758925238874	-30.37021142553273	-102.2773676697156	0	0.9399999998679526	0	44.9928365762396	-10.75164250844751	0	59.99699599643754	1.047145121443691	-5.305409148296427	0	0	44.9928365762396	-10.75164250844751	0	59.99699599643754	1.047145121443691	-5.305409148296427	0	0	-89.97411701745563	2.543337792363399	3.476536417299015	86.8714162866443	-10.02141312009515	57.09784049589112	158.5153253320348	2.035167792454612	0	0	0	-11.05465415042345	0	88.00510907291084	2.035167792454612	0	0
1.18	-3.308507186025678	-28.37554569312718	-101.088058138181	0	0.9399999998679526	0	44.99284009921732	-10.75035010908279	0	59.99699720919642	1.047145142610327	-5.304724431491973	0	0	44.99284009921732	-10.75035010908279	0	59.99699720919642	1.047145142610327	-5.304724431491973	0	0	-89.97393855851249	3.048173168888892	2.651859532374796	89.17076353726544	-8.154507954405418	57.77654813669199	156.5427302667961	2.03447127379728	0	0	0	-11.0556482739695	0	88.00579173518864	2.03447127379728	0	0
1.19	-1.933222188633921	-26.35494320753704	-99.95067496227809	0	0.9399999998679526	0	44.99284319884438	-10.74921482716787	0	59.99699827679775	1.047145161243485	-5.304123286249629	0	0	44.99284319884438	-10.74921482716787	0	59.99699827679775	1.047145161243485	-5.304123286249629	0	0	-89.97374868741784	3.593917815846246	1.848907729446123	91.3367685538214	-6.55831874622862	58.72970532534384	157.2771453820177	2.033858268052605	0	0	0	-11.05652340340874	0	88.00639254596118	2.033858268052605	0	0
1.2	-1.30201101348145	-23.49749220027087	-99.59080868602655	0	0.9399999998679526	0	44.9928466383265	-10.74795527364716	0	59.99699946076061	1.047145181907535	-5.303456515810496	0	0	44.9928466383265	-10.74795527364716	0	59.99699946076061	1.047145181907535	-5.303456515810496	0	0	-89.97274827383148	3.743550864581622	1.942682909520743	93.97542709567355	-5.029807097342847	59.38449407277572	157.5664591995337	2.033178139901418	0	0	0	-11.05749422143459	0	88.00705914381906	2.033178139901418	0	0
1.21	-1.960957901783208	-21.66883078659655	-99.77590008031918	0	0.9399999998679526	0	44.99284899022186	-10.74709591919175	0	59.99700027113393	1.047145196051218	-5.303001913711057	0	0	44.99284899022186	-10.74709591919175	0	59.99700027113393	1.047145196051218	-5.303001913711057	0	0	-89.78891577937836	3.694059896067474	2.874519296390689	95.27996807068772	-4.185302114504767	59.94691583758316	157.5757750458438	2.032712854766831	0	0	0	-11.05815861113014	0	88.00751517271438	2.032712854766831	0	0
1.22	-1.805606803397282	-16.64741881013838	-99.63495404758079	0	0.9399999998679526	0	44.99301058019277	-10.70632025979738	0	59.99706935487396	1.047146401789941	-5.283292321204508	0	0	44.99301058019277	-10.70632025979738	0	59.99706935487396	1.047146401789941	-5.283292321204508	0	0	-82.70048611551302	3.770250093290579	3.381715704577872	92.93660478516674	-4.015317907163782	59.24864416350715	155.3128712760802	1.997687743399835	0	0	0	-11.11188446490936	0	88.04184380646281	1.997687743399835	0	0
1.23	-1.6645799390526	-13.07960244130816	-100.1720135308736	0	0.9399999998679526	0	44.99326283530875	-10.65012809709479	0	59.99718084752568	1.047148347703805	-5.25719503953559	0	0	44.99326283530875	-10.65012809709479	0	59.99718084752568	1.047148347703805	-5.25719503953559	0	0	-76.21772803098493	3.258382567762229	3.892109498997619	90.06437388723091	-4.056367624301857	59.3254051226331	156.4711591923451	1.941783435578857	0	0	0	-11.19897049716765	0	88.09663655267542	1.941783435578857	0	0
